<mxfile host="app.diagrams.net" modified="2023-06-26T09:16:01.286Z" agent="Mozilla/5.0 (Macintosh; Intel Mac OS X 10_15_7) AppleWebKit/537.36 (KHTML, like Gecko) Chrome/113.0.0.0 Safari/537.36" version="21.2.1" etag="E_-Mxq2I7wuQuec3vMEN" type="github">
  <diagram name="Page-1" id="Yjl-k3IvmLf3kv_nib0n">
    <mxGraphModel>
      <root>
        <mxCell id="0" />
        <mxCell id="1" parent="0" />
      </root>
    </mxGraphModel>
  </diagram>
</mxfile>
